<?xml version="1.0" standalone="no"?>
<!DOCTYPE svg PUBLIC "-//W3C//DTD SVG 20010904//EN"
 "http://www.w3.org/TR/2001/REC-SVG-20010904/DTD/svg10.dtd">
<svg version="1.0" xmlns="http://www.w3.org/2000/svg"
 width="471.000000pt" height="471.000000pt" viewBox="0 0 471.000000 471.000000"
 preserveAspectRatio="xMidYMid meet">
<metadata>
Created by potrace 1.14, written by Peter Selinger 2001-2017
</metadata>
<g transform="translate(0.000000,471.000000) scale(0.100000,-0.100000)"
fill="#000000" stroke="none">
<path d="M2367 4563 c-1 0 -27 -3 -57 -6 -30 -3 -55 -6 -55 -7 0 -1 -14 -3
-31 -5 -17 -2 -48 -8 -69 -14 -21 -6 -42 -8 -47 -5 -4 3 -8 0 -8 -6 0 -6 -4
-8 -10 -5 -5 3 -16 3 -22 -2 -7 -4 -18 -8 -23 -9 -27 -4 -178 -70 -244 -106
-76 -42 -196 -134 -263 -201 -20 -20 -34 -37 -32 -37 3 0 -11 -15 -30 -34 -19
-19 -42 -49 -52 -65 -10 -17 -22 -31 -26 -31 -4 0 -8 -6 -8 -12 0 -7 -11 -26
-25 -42 -14 -16 -25 -35 -25 -42 0 -7 -6 -19 -14 -26 -16 -16 -69 -116 -72
-137 -2 -7 -7 -18 -13 -24 -6 -6 -11 -19 -11 -29 0 -10 -4 -18 -8 -18 -4 0
-13 -21 -21 -47 -7 -27 -16 -57 -21 -68 -8 -20 -20 -56 -22 -65 -1 -3 -5 -21
-9 -40 -16 -67 -22 -146 -23 -265 0 -165 8 -223 34 -247 12 -11 19 -26 16 -33
-3 -8 0 -16 7 -18 15 -6 -4 -13 -54 -21 -21 -4 -48 -15 -62 -26 -32 -26 -76
-103 -81 -144 -2 -17 -7 -38 -11 -47 -3 -10 -1 -20 5 -24 8 -5 8 -11 -1 -21
-6 -8 -7 -14 -2 -14 5 0 9 -17 8 -37 0 -21 3 -56 7 -78 5 -22 11 -62 14 -90 4
-27 9 -52 13 -55 9 -7 8 -160 -1 -160 -4 0 -6 -13 -4 -30 2 -16 0 -30 -3 -30
-4 0 -8 -10 -8 -22 -1 -13 -3 -38 -4 -56 -2 -37 31 -114 46 -108 6 2 19 -2 30
-10 36 -26 123 -7 165 36 8 9 14 14 13 11 -2 -2 2 -10 9 -18 6 -7 8 -16 6 -19
-5 -5 15 -91 40 -171 6 -17 8 -34 4 -37 -3 -3 -1 -6 5 -6 6 0 14 -12 18 -27 3
-16 22 -61 41 -101 19 -41 34 -78 34 -83 0 -5 5 -9 10 -9 6 0 10 -4 10 -9 0
-10 76 -138 94 -158 26 -29 36 -42 36 -48 0 -15 122 -141 195 -202 29 -24 35
-33 22 -34 -26 -2 -27 -2 -104 -29 -40 -13 -73 -28 -73 -32 0 -5 -6 -8 -14 -8
-41 0 -53 -97 -15 -121 8 -5 10 -9 5 -9 -6 0 -5 -5 2 -12 15 -15 15 -24 0 -26
-64 -8 -164 -40 -215 -69 -24 -13 -43 -21 -43 -18 0 3 -13 -8 -30 -25 -16 -16
-33 -30 -37 -30 -4 0 -19 -17 -33 -37 -14 -20 -30 -42 -36 -48 -15 -15 -113
-215 -118 -241 -3 -10 -11 -35 -20 -55 -8 -20 -12 -39 -9 -43 4 -3 0 -6 -7 -6
-7 0 -10 -3 -7 -7 4 -3 1 -13 -6 -21 -10 -13 -9 -14 3 -7 9 5 8 0 -4 -13 -11
-12 -16 -22 -12 -22 3 0 0 -16 -8 -35 -15 -35 -15 -35 12 -36 15 -1 33 -1 41
0 8 2 10 -2 5 -10 -5 -8 -3 -9 7 -3 21 13 39 14 39 2 0 -7 5 -7 13 1 8 6 17 8
21 4 4 -4 30 -8 59 -8 29 0 58 -4 65 -8 7 -5 12 -3 12 5 0 9 3 9 10 -2 5 -8
10 -10 10 -4 0 8 11 9 35 4 20 -4 38 -4 41 1 3 5 11 6 17 2 12 -8 102 -13 259
-15 53 -1 85 -5 81 -11 -4 -6 -1 -7 8 -1 21 13 39 14 39 1 0 -8 3 -8 8 -2 4 6
16 10 27 10 11 0 23 -4 27 -10 5 -6 8 -4 8 5 0 13 1 13 10 0 9 -13 10 -13 10
0 0 13 1 13 10 0 7 -11 10 -11 10 -2 0 8 5 10 12 6 15 -10 918 -12 918 -2 0 4
14 3 30 -2 17 -5 30 -6 30 -2 0 9 53 8 67 -1 6 -4 13 -3 17 1 4 3 53 8 109 9
188 4 212 6 226 17 11 8 13 8 8 -1 -5 -8 11 -11 58 -10 36 1 65 5 65 8 0 3 19
4 42 3 24 -1 50 2 59 6 10 6 20 5 27 -2 7 -7 16 -8 24 -2 16 11 38 11 56 1 6
-5 12 -4 12 1 0 5 22 8 49 8 44 -2 49 0 45 19 -2 11 -8 29 -13 40 -15 31 -45
129 -43 138 1 4 -3 7 -10 7 -6 0 -9 3 -6 6 9 8 -85 219 -103 234 -3 3 -14 21
-23 41 -20 42 -87 119 -104 119 -7 0 -12 4 -12 9 0 10 -70 46 -82 43 -5 -1 -8
2 -8 7 0 5 -15 13 -32 16 -18 4 -39 12 -45 17 -7 6 -19 8 -27 5 -8 -3 -17 -3
-21 1 -7 7 -12 8 -39 11 -9 1 -12 8 -9 21 3 11 10 17 16 13 6 -3 7 -1 3 6 -4
6 -2 18 4 26 7 8 9 15 5 15 -4 0 -3 6 2 13 14 17 -4 77 -22 77 -8 0 -15 4 -15
9 0 10 -39 27 -52 23 -5 -1 -8 3 -8 10 0 6 -3 9 -6 6 -3 -3 -26 2 -52 11 -26
10 -58 17 -70 16 -25 -2 -26 -3 43 51 91 71 199 176 265 259 47 58 130 183
130 194 0 5 6 16 13 23 7 7 21 32 31 56 l19 42 27 -40 c15 -22 30 -37 33 -33
4 3 7 -1 7 -10 0 -10 3 -16 8 -16 4 1 9 0 12 -1 58 -22 123 -11 155 25 13 16
22 31 20 33 -2 3 0 12 5 21 5 10 11 42 15 72 3 30 8 61 10 69 2 8 6 31 9 52 7
43 13 60 78 196 27 57 46 107 43 113 -4 5 0 12 9 15 8 3 13 14 11 25 -2 10 0
19 5 19 5 0 9 8 10 18 0 9 2 42 4 72 4 60 -18 136 -49 167 -26 25 -65 44 -78
36 -7 -4 -8 5 -2 28 4 19 13 64 20 102 13 73 21 89 35 67 7 -12 13 -12 33 -1
13 7 24 18 24 24 0 12 8 78 19 152 3 22 7 69 9 105 2 36 5 65 5 65 1 0 2 45 2
100 1 112 -11 259 -23 285 -1 3 -3 10 -4 15 -2 6 -4 13 -5 18 -1 4 -4 12 -5
17 -1 6 -4 12 -5 15 -1 3 -3 8 -4 13 -4 20 -32 72 -38 72 -5 0 -8 7 -8 15 0 9
-7 18 -15 21 -8 4 -15 11 -16 18 0 6 -29 35 -63 65 -62 53 -63 55 -55 90 12
50 11 119 -1 126 -6 4 -8 10 -5 15 2 4 -4 19 -15 33 -11 14 -20 28 -20 32 0
11 -70 95 -140 168 -36 38 -94 88 -130 112 -70 46 -166 95 -187 95 -7 0 -13 5
-13 10 0 6 -9 10 -20 10 -11 0 -20 4 -20 8 0 4 -8 8 -17 9 -10 1 -40 11 -66
22 -27 12 -56 21 -66 21 -9 0 -21 4 -27 9 -5 5 -22 12 -39 15 -16 3 -58 12
-91 20 -34 7 -84 16 -110 20 -27 3 -67 9 -89 12 -35 5 -274 12 -278 7z"/>
</g>
</svg>
